<svg width="45" height="36" viewBox="0 0 45 36" fill="none" xmlns="http://www.w3.org/2000/svg">
<path d="M44.0342 14.4655V12.3516H36.8729V8.69643H33.4179V12.3516H31.1597V14.4655H33.4179V27.4053H30.2005V28.7696H33.4179V32.4946H7.80854V30.8928H11.9573V28.7789H7.80854V21.6129H6.41166V20.244H7.80854V10.1632H5.48041V9.37625H7.80854V6.35435H9.48945V4.99007H7.80854V4.05882H33.4179V7.3182H36.8729V0.589905H35.0104V2.70849H33.7346V0.589905H8.70254V1.98678H7.45001V0.589905H4.33498V4.97143H2.75651V6.33573H4.33498V28.7509H0V30.8649H4.33498V35.9262H5.89948V34.4874H7.15201V35.9262H36.8729V28.7696H42.1391V27.4053H36.8729V14.4655H44.0342ZM36.4119 28.7696V27.4053V28.7696Z" fill="#36F097"/>
<path d="M21.1994 14.7635L13.0184 9.97223V15.001L15.2022 16.3653L11.4399 18.3255V23.3496L21.1994 18.1253V14.7635Z" fill="#36F097"/>
<path d="M28.5287 22.3206H19.3047V25.6498H28.5287V22.3206Z" fill="#36F097"/>
</svg>
